#!OML:ASF X:\für Bonn\!DataBase\2005_08_10_Bjorn_Final\c3d\bjorn.ASF
:FULLY-SPECIFIED
:DEGREES
109
root 0.745713 12.4823 3.86683 -181.515 1.39845 -178.245
lowerback 24.1056 -1.01938 5.464
upperback 9.5776 2.06438 -1.43056
thorax -2.65954 2.10571 -5.24645
lowerneck -27.9956 -2.51341 -0.0439975
upperneck 6.30215 -3.92114 0.386594
head 6.27524 -2.08437 -0.392253
rclavicle 5.76724e-014 -2.33696e-014
rhumerus 75.0582 -0.403351 -60.8529
rradius 14.6082
rwrist 28.1763
rhand -14.9585 12.3932
rfingers 7.12502
rthumb 11.2048 -17.2876
lclavicle 5.76724e-014 -2.33696e-014
lhumerus 81.8833 -11.2907 51.9231
lradius 12.7024
lwrist -34.1964
lhand -11.2129 -5.82903
lfingers 7.12502
lthumb 14.8154 23.6214
rfemur -64.9872 -18.0679 14.6792
rtibia 119.959
rfoot -29.6441 24.9209
rtoes -27.8096
lfemur -65.0157 12.5956 -17.1423
ltibia 122.737
lfoot -26.916 -12.7303
ltoes -30.7495
110
root 0.739641 12.6972 3.84808 -181.196 1.35496 -178.219
lowerback 23.5189 -0.923977 5.46824
upperback 9.46694 2.08568 -1.41703
thorax -2.48951 2.08927 -5.2144
lowerneck -27.9535 -2.60627 -0.0921663
upperneck 6.6385 -4.00651 0.461723
head 6.38371 -2.10298 -0.372957
rclavicle 9.4547e-015 -8.72168e-015
rhumerus 75.0169 -0.409765 -60.2765
rradius 14.6335
rwrist 27.5395
rhand -14.8302 12.3227
rfingers 7.12502
rthumb 11.3285 -17.3513
lclavicle 9.4547e-015 -8.72168e-015
lhumerus 81.8545 -11.1847 52.4608
lradius 12.6484
lwrist -34.7529
lhand -11.1715 -5.90259
lfingers 7.12502
lthumb 14.8553 23.5449
rfemur -63.9861 -17.0272 14.9337
rtibia 118.113
rfoot -29.6258 24.029
rtoes -28.0371
lfemur -64.0523 11.631 -17.2566
ltibia 120.94
lfoot -26.7935 -12.0335
ltoes -30.7225
111
root 0.733269 12.9102 3.82762 -180.885 1.31073 -178.194
lowerback 22.9169 -0.84087 5.47271
upperback 9.35763 2.09073 -1.39965
thorax -2.31068 2.06519 -5.17364
lowerneck -27.8723 -2.67761 -0.133521
upperneck 6.94616 -4.06685 0.531086
head 6.47707 -2.11083 -0.352602
rclavicle 1.65737e-014 -9.16894e-015
rhumerus 75.0169 -0.45157 -60.176
rradius 14.5852
rwrist 27.412
rhand -14.6513 12.3449
rfingers 7.12502
rthumb 11.5011 -17.3196
lclavicle 1.65737e-014 -9.16894e-015
lhumerus 81.8277 -11.0639 52.7783
lradius 12.6141
lwrist -35.0444
lhand -11.174 -5.90773
lfingers 7.12502
lthumb 14.8528 23.5399
rfemur -62.9703 -16.1001 15.1592
rtibia 116.246
rfoot -29.7034 23.1965
rtoes -28.4229
lfemur -63.0711 10.7533 -17.3679
ltibia 119.129
lfoot -26.7406 -11.276
ltoes -30.9316
112
root 0.727465 13.1249 3.80625 -180.585 1.25791 -178.151
lowerback 22.3143 -0.765023 5.478
upperback 9.25159 2.08922 -1.3684
thorax -2.12743 2.03865 -5.11692
lowerneck -27.7676 -2.74707 -0.172308
upperneck 7.22861 -4.12838 0.603707
head 6.55886 -2.11995 -0.331173
rclavicle -2.045e-014 1.23743e-014
rhumerus 75.0205 -0.496603 -60.0905
rradius 14.5451
rwrist 27.4367
rhand -14.442 12.3805
rfingers 7.12502
rthumb 11.7029 -17.2726
lclavicle -2.045e-014 1.23743e-014
lhumerus 81.8312 -10.9339 53.1015
lradius 12.5234
lwrist -35.2699
lhand -11.2628 -5.94868
lfingers 7.12502
lthumb 14.7673 23.5052
rfemur -61.9271 -15.2712 15.3863
rtibia 114.341
rfoot -29.8768 22.3635
rtoes -28.8216
lfemur -62.0552 9.95146 -17.4463
ltibia 117.268
lfoot -26.6612 -10.5956
ltoes -30.9073
113
root 0.720804 13.3402 3.78249 -180.285 1.2156 -178.124
lowerback 21.6905 -0.677402 5.50309
upperback 9.15221 2.10748 -1.36238
thorax -1.91986 2.025 -5.10234
lowerneck -27.6606 -2.80791 -0.144492
upperneck 7.48121 -4.19755 0.625291
head 6.62791 -2.13711 -0.337743
rclavicle 1.3418e-015 1.09829e-014
rhumerus 75.0041 -0.608534 -60.165
rradius 14.5035
rwrist 27.6458
rhand -14.2254 12.3748
rfingers 7.12502
rthumb 11.9118 -17.2663
lclavicle 1.3418e-015 1.09829e-014
lhumerus 81.9005 -10.8544 53.2486
lradius 12.4529
lwrist -35.2767
lhand -11.391 -5.90983
lfingers 7.12502
lthumb 14.6438 23.5531
rfemur -60.8523 -14.5068 15.57
rtibia 112.377
rfoot -30.05 21.6325
rtoes -29.2142
lfemur -61.0144 9.22262 -17.5444
ltibia 115.37
lfoot -26.5957 -9.90767
ltoes -31.0268
114
root 0.715363 13.5555 3.75847 -179.984 1.15222 -178.099
lowerback 21.0686 -0.601266 5.50517
upperback 9.0432 2.10522 -1.34622
thorax -1.72568 1.999 -5.05977
lowerneck -27.554 -2.8578 -0.113815
upperneck 7.76307 -4.25438 0.660452
head 6.70707 -2.14593 -0.338963
rclavicle 2.35311e-014 -1.98785e-016
rhumerus 74.9968 -0.700821 -60.321
rradius 14.4417
rwrist 28.0017
rhand -14.0297 12.3298
rfingers 7.12502
rthumb 12.1004 -17.3003
lclavicle 2.35311e-014 -1.98785e-016
lhumerus 81.9599 -10.7634 53.3098
lradius 12.4018
lwrist -35.0226
lhand -11.5075 -5.86301
lfingers 7.12502
lthumb 14.5316 23.608
rfemur -59.7631 -13.8271 15.736
rtibia 110.373
rfoot -30.184 20.9894
rtoes -29.4608
lfemur -59.9727 8.5615 -17.6292
ltibia 113.434
lfoot -26.5404 -9.26376
ltoes -31.1937
115
root 0.709747 13.772 3.73256 -179.685 1.09752 -178.038
lowerback 20.4274 -0.518395 5.53875
upperback 8.93184 2.1171 -1.3068
thorax -1.52025 1.98036 -5.01257
lowerneck -27.3694 -2.91803 -0.117355
upperneck 7.96272 -4.31956 0.720558
head 6.74874 -2.16001 -0.325725
rclavicle -4.008e-014 2.93207e-014
rhumerus 74.9976 -0.817202 -60.6355
rradius 14.353
rwrist 28.5804
rhand -13.7658 12.2752
rfingers 7.12502
rthumb 12.355 -17.3397
lclavicle -4.008e-014 2.93207e-014
lhumerus 81.9839 -10.6798 53.5101
lradius 12.3602
lwrist -34.8753
lhand -11.595 -5.78121
lfingers 7.12502
lthumb 14.4472 23.6959
rfemur -58.6389 -13.175 15.923
rtibia 108.306
rfoot -30.2156 20.4716
rtoes -29.4561
lfemur -58.9044 7.96712 -17.6566
ltibia 111.449
lfoot -26.4508 -8.69646
ltoes -31.2455
116
root 0.703935 13.9901 3.70575 -179.394 1.0534 -178.011
lowerback 19.7646 -0.428615 5.54712
upperback 8.82112 2.13157 -1.29225
thorax -1.30053 1.96358 -4.97745
lowerneck -27.1604 -2.96822 -0.0810838
upperneck 8.17376 -4.38119 0.75896
head 6.7892 -2.17265 -0.325127
rclavicle 1.42628e-014 -4.37326e-015
rhumerus 74.9672 -0.922558 -60.8133
rradius 14.2821
rwrist 29
rhand -13.4828 12.1792
rfingers 7.12502
rthumb 12.6278 -17.4191
lclavicle 1.42628e-014 -4.37326e-015
lhumerus 81.9755 -10.6115 53.7124
lradius 12.4003
lwrist -34.683
lhand -11.6333 -5.71011
lfingers 7.12502
lthumb 14.4104 23.7696
rfemur -57.4914 -12.5984 16.0533
rtibia 106.187
rfoot -30.2328 20.0423
rtoes -29.365
lfemur -57.8069 7.43603 -17.7228
ltibia 109.407
lfoot -26.359 -8.11051
ltoes -31.3464
117
root 0.697988 14.2064 3.67756 -179.103 0.990767 -177.985
lowerback 19.0539 -0.34978 5.54412
upperback 8.73835 2.13295 -1.25636
thorax -1.02722 1.94431 -4.90747
lowerneck -26.9652 -3.01998 -0.0543097
upperneck 8.35105 -4.44147 0.771522
head 6.81973 -2.18946 -0.331379
rclavicle 2.34069e-014 -1.44119e-014
rhumerus 74.9956 -0.985304 -60.8521
rradius 14.2105
rwrist 29.2489
rhand -13.1719 11.9934
rfingers 7.12502
rthumb 12.9275 -17.5862
lclavicle 2.34069e-014 -1.44119e-014
lhumerus 82.0249 -10.493 53.9149
lradius 12.3676
lwrist -34.5403
lhand -11.7036 -5.68113
lfingers 7.12502
lthumb 14.3426 23.8034
rfemur -56.3374 -12.0871 16.1696
rtibia 104.033
rfoot -30.2023 19.6996
rtoes -29.185
lfemur -56.6903 6.93007 -17.7925
ltibia 107.318
lfoot -26.3154 -7.51474
ltoes -31.5858
118
root 0.692668 14.424 3.64805 -178.851 0.948265 -177.939
lowerback 18.3786 -0.263778 5.5804
upperback 8.6421 2.1524 -1.24596
thorax -0.779281 1.93466 -4.89298
lowerneck -26.7002 -3.06824 0.014821
upperneck 8.51503 -4.51462 0.814926
head 6.83532 -2.20779 -0.33439
rclavicle 8.94531e-016 -1.28713e-014
rhumerus 74.9992 -1.0863 -60.9636
rradius 14.0839
rwrist 29.4685
rhand -12.7913 11.7818
rfingers 7.12502
rthumb 13.2943 -17.7742
lclavicle 8.94531e-016 -1.28713e-014
lhumerus 82.1698 -10.4543 53.6665
lradius 12.2884
lwrist -34.0159
lhand -11.7575 -5.59473
lfingers 7.12502
lthumb 14.2907 23.8935
rfemur -55.0945 -11.612 16.2892
rtibia 101.818
rfoot -30.1316 19.4178
rtoes -28.8204
lfemur -55.4932 6.50524 -17.8106
ltibia 105.172
lfoot -26.2164 -7.131
ltoes -31.2519
